<svg width="410" height="21" viewBox="0 0 410 21" fill="none" xmlns="http://www.w3.org/2000/svg">
<path d="M201.344 17.198C204.98 17.198 207.842 14.3 207.842 10.7C207.842 7.1 204.98 4.202 201.344 4.202C197.708 4.202 194.846 7.1 194.846 10.7C194.846 14.3 197.708 17.198 201.344 17.198ZM201.344 16.28C198.23 16.28 195.8 13.796 195.8 10.7C195.8 7.604 198.23 5.12 201.344 5.12C204.458 5.12 206.888 7.604 206.888 10.7C206.888 13.796 204.458 16.28 201.344 16.28ZM210.981 9.764V8H210.081V17H210.981V11.996C210.981 9.692 212.439 8.738 213.987 8.738V7.874C212.763 7.874 211.593 8.342 210.981 9.764Z" fill="#B6C2CC"/>
<line x1="1" y1="9" x2="191" y2="9" stroke="#31516D" stroke-opacity="0.2" stroke-width="2" stroke-linecap="round"/>
<line x1="219" y1="9" x2="409" y2="9" stroke="#31516D" stroke-opacity="0.2" stroke-width="2" stroke-linecap="round"/>
</svg>
