<svg width="37" height="32" viewBox="0 0 37 32" fill="none" xmlns="http://www.w3.org/2000/svg">
<path d="M37 3.79578C35.6393 4.43722 34.1777 4.87063 32.641 5.06652C34.2266 4.0572 35.4128 2.46864 35.9783 0.597263C34.4887 1.5386 32.8583 2.2012 31.1582 2.55625C30.0148 1.25754 28.5005 0.396729 26.8502 0.107471C25.1999 -0.181787 23.5061 0.11669 22.0316 0.956559C20.5571 1.79643 19.3845 3.1307 18.6958 4.75223C18.0071 6.37375 17.8409 8.1918 18.223 9.92412C15.2046 9.76288 12.2518 8.92824 9.55623 7.47435C6.86066 6.02047 4.48257 3.97983 2.57628 1.48487C1.92447 2.68107 1.54968 4.06796 1.54968 5.545C1.54895 6.87468 1.85673 8.18399 2.44572 9.35676C3.0347 10.5295 3.88668 11.5295 4.92605 12.268C3.72066 12.2272 2.54185 11.8806 1.48776 11.2573V11.3613C1.48764 13.2262 2.09399 15.0337 3.20394 16.4772C4.3139 17.9206 5.85907 18.9111 7.57729 19.2804C6.45909 19.6024 5.28673 19.6498 4.14877 19.4191C4.63355 21.0238 5.57786 22.427 6.84949 23.4323C8.12113 24.4376 9.65643 24.9948 11.2405 25.0256C8.55148 27.2714 5.23059 28.4896 1.81203 28.4842C1.20647 28.4844 0.601419 28.4468 0 28.3715C3.47004 30.7451 7.50941 32.0049 11.6348 32C25.5998 32 33.2342 19.6948 33.2342 9.02264C33.2342 8.67591 33.226 8.32572 33.2114 7.979C34.6963 6.8365 35.9781 5.42174 36.9967 3.80099L37 3.79578Z" fill="#2E4756"/>
</svg>
