<svg width="30" height="32" viewBox="0 0 30 32" fill="none" xmlns="http://www.w3.org/2000/svg">
<path d="M14.996 21.3356C12.2417 21.3356 9.99393 18.938 9.99393 16C9.99393 13.062 12.2417 10.6644 14.996 10.6644C17.7503 10.6644 19.998 13.062 19.998 16C19.998 18.938 17.7503 21.3356 14.996 21.3356ZM29.9983 16C29.9983 18.2095 30.0171 20.399 29.9008 22.6045C29.7844 25.1662 29.2366 27.4397 27.4804 29.313C25.7205 31.1903 23.5929 31.7707 21.1913 31.8947C19.1199 32.0188 17.0673 31.9988 14.9997 31.9988C12.9284 31.9988 10.8758 32.0188 8.80815 31.8947C6.40658 31.7707 4.27517 31.1863 2.51902 29.313C0.759114 27.4357 0.215007 25.1662 0.0986802 22.6045C-0.0176462 20.395 0.00111615 18.2055 0.00111615 16C0.00111615 13.7945 -0.0176462 11.601 0.0986802 9.39554C0.215007 6.83381 0.762867 4.56027 2.51902 2.68701C4.27893 0.809736 6.40658 0.229345 8.80815 0.105261C10.8795 -0.0188217 12.9321 0.00118828 14.9997 0.00118828C17.0711 0.00118828 19.1237 -0.0188217 21.1913 0.105261C23.5929 0.229345 25.7243 0.81374 27.4804 2.68701C29.2403 4.56427 29.7844 6.83381 29.9008 9.39554C30.0208 11.601 29.9983 13.7905 29.9983 16ZM14.996 7.79045C10.7369 7.79045 7.29966 11.4569 7.29966 16C7.29966 20.5431 10.7369 24.2095 14.996 24.2095C19.255 24.2095 22.6923 20.5431 22.6923 16C22.6923 11.4569 19.255 7.79045 14.996 7.79045ZM23.0075 22.6285C22.0131 22.6285 21.2101 23.4851 21.2101 24.5458C21.2101 25.6065 22.0131 26.4631 23.0075 26.4631C24.0019 26.4631 24.8049 25.6065 24.8049 24.5458C24.8052 24.2939 24.7589 24.0444 24.6687 23.8117C24.5785 23.5789 24.4461 23.3674 24.2791 23.1893C24.1122 23.0112 23.9139 22.87 23.6957 22.7738C23.4775 22.6775 23.2436 22.6282 23.0075 22.6285Z" fill="#2E4756"/>
</svg>
