<svg width="30" height="32" viewBox="0 0 30 32" fill="none" xmlns="http://www.w3.org/2000/svg">
<path fill-rule="evenodd" clip-rule="evenodd" d="M15 0C6.715 0 0 7.164 0 16C0 24.836 6.715 32 15 32C23.2838 32 30 24.836 30 16C30 7.164 23.2838 0 15 0ZM15.175 25.3573C10.34 25.3573 6.425 21.1707 6.425 16C6.425 10.8293 10.34 6.64267 15.175 6.64267C17.5375 6.64267 19.5125 7.572 21.0275 9.08133L18.56 11.7187V11.7133C17.6412 10.7773 16.4762 10.2973 15.175 10.2973C12.2875 10.2973 9.94125 12.9053 9.94125 15.9947C9.94125 19.0813 12.2875 21.6973 15.175 21.6973C17.795 21.6973 19.5775 20.0947 19.945 17.8947H15.175V14.2453H23.4062C23.5163 14.872 23.575 15.5253 23.575 16.2107C23.575 21.5573 20.2288 25.3573 15.175 25.3573Z" fill="#2E4756"/>
</svg>
