<svg width="31" height="32" viewBox="0 0 31 32" fill="none" xmlns="http://www.w3.org/2000/svg">
<path d="M31 16.0991C31 7.20536 24.057 0 15.5 0C6.93722 0 0 7.20536 0 16.0991C0 24.1326 5.66622 30.7936 13.0781 32V20.7538H9.14209V16.1001H13.0781V12.5513C13.0781 8.51744 15.3886 6.28972 18.9303 6.28972C20.6266 6.28972 22.4023 6.60365 22.4023 6.60365V10.565H20.4445C18.5225 10.565 17.9219 11.8077 17.9219 13.0805V16.0991H22.2202L21.5295 20.7528H17.9219V31.999C25.328 30.7926 31 24.1316 31 16.0981V16.0991Z" fill="#2E4756"/>
</svg>
